<mxfile host="Electron" modified="2023-05-29T17:22:04.572Z" agent="Mozilla/5.0 (Windows NT 10.0; Win64; x64) AppleWebKit/537.36 (KHTML, like Gecko) draw.io/21.2.8 Chrome/112.0.5615.165 Electron/24.2.0 Safari/537.36" etag="Co3CIVep38uLURtIUw29" version="21.2.8" type="device">
  <diagram name="Pagina-1" id="cRLQu5AnUjknGKx3u6Ge">
    <mxGraphModel dx="1276" dy="606" grid="1" gridSize="10" guides="1" tooltips="1" connect="1" arrows="1" fold="1" page="1" pageScale="1" pageWidth="827" pageHeight="1169" math="0" shadow="0">
      <root>
        <mxCell id="0" />
        <mxCell id="1" parent="0" />
        <mxCell id="d3n50mrm-2xk-7-aw-kh-1" value="submit credential" style="rounded=1;whiteSpace=wrap;html=1;" vertex="1" parent="1">
          <mxGeometry x="140" y="122.5" width="100" height="45" as="geometry" />
        </mxCell>
        <mxCell id="d3n50mrm-2xk-7-aw-kh-2" value="" style="ellipse;html=1;fillColor=#000000;strokeColor=#ff0000;" vertex="1" parent="1">
          <mxGeometry x="40" y="130" width="30" height="30" as="geometry" />
        </mxCell>
        <mxCell id="d3n50mrm-2xk-7-aw-kh-3" value="" style="ellipse;html=1;shape=endState;fillColor=#000000;strokeColor=#ff0000;" vertex="1" parent="1">
          <mxGeometry x="650" y="130" width="30" height="30" as="geometry" />
        </mxCell>
        <mxCell id="d3n50mrm-2xk-7-aw-kh-4" value="check if email is registered" style="rounded=1;whiteSpace=wrap;html=1;" vertex="1" parent="1">
          <mxGeometry x="300" y="122.5" width="100" height="45" as="geometry" />
        </mxCell>
        <mxCell id="d3n50mrm-2xk-7-aw-kh-5" value="succesfully registered" style="rounded=1;whiteSpace=wrap;html=1;" vertex="1" parent="1">
          <mxGeometry x="470" y="122.5" width="100" height="45" as="geometry" />
        </mxCell>
        <mxCell id="d3n50mrm-2xk-7-aw-kh-6" value="" style="endArrow=open;endFill=1;endSize=12;html=1;rounded=0;exitX=1;exitY=0.5;exitDx=0;exitDy=0;entryX=0;entryY=0.5;entryDx=0;entryDy=0;" edge="1" parent="1" source="d3n50mrm-2xk-7-aw-kh-1" target="d3n50mrm-2xk-7-aw-kh-4">
          <mxGeometry width="160" relative="1" as="geometry">
            <mxPoint x="200" y="133" as="sourcePoint" />
            <mxPoint x="280" y="83" as="targetPoint" />
            <Array as="points" />
          </mxGeometry>
        </mxCell>
        <mxCell id="d3n50mrm-2xk-7-aw-kh-7" value="" style="endArrow=open;endFill=1;endSize=12;html=1;rounded=0;exitX=1;exitY=0.5;exitDx=0;exitDy=0;entryX=0;entryY=0.5;entryDx=0;entryDy=0;" edge="1" parent="1" source="d3n50mrm-2xk-7-aw-kh-4" target="d3n50mrm-2xk-7-aw-kh-5">
          <mxGeometry width="160" relative="1" as="geometry">
            <mxPoint x="200" y="178" as="sourcePoint" />
            <mxPoint x="280" y="253" as="targetPoint" />
            <Array as="points" />
          </mxGeometry>
        </mxCell>
        <mxCell id="d3n50mrm-2xk-7-aw-kh-8" value="" style="endArrow=open;endFill=1;endSize=12;html=1;rounded=0;exitX=1;exitY=0.5;exitDx=0;exitDy=0;entryX=0;entryY=0.5;entryDx=0;entryDy=0;" edge="1" parent="1" source="d3n50mrm-2xk-7-aw-kh-2" target="d3n50mrm-2xk-7-aw-kh-1">
          <mxGeometry width="160" relative="1" as="geometry">
            <mxPoint x="70" y="180" as="sourcePoint" />
            <mxPoint x="120" y="180" as="targetPoint" />
            <Array as="points" />
          </mxGeometry>
        </mxCell>
        <mxCell id="d3n50mrm-2xk-7-aw-kh-11" value="" style="endArrow=open;endFill=1;endSize=12;html=1;rounded=0;exitX=1;exitY=0.5;exitDx=0;exitDy=0;entryX=0;entryY=0.5;entryDx=0;entryDy=0;" edge="1" parent="1" source="d3n50mrm-2xk-7-aw-kh-5" target="d3n50mrm-2xk-7-aw-kh-3">
          <mxGeometry width="160" relative="1" as="geometry">
            <mxPoint x="730" y="145" as="sourcePoint" />
            <mxPoint x="650" y="155" as="targetPoint" />
            <Array as="points" />
          </mxGeometry>
        </mxCell>
      </root>
    </mxGraphModel>
  </diagram>
</mxfile>
